<?xml version="1.0" encoding="UTF-8"?>
<svg id="_图层_1" data-name="图层 1" xmlns="http://www.w3.org/2000/svg" viewBox="0 0 610.45 611.77">
  <defs>
    <style>
      .cls-1 {
        fill: #dd8841;
      }

      .cls-2, .cls-3 {
        fill: #5d6063;
      }

      .cls-3, .cls-4 {
        font-family: MVBoli, 'MV Boli';
        font-size: 123.64px;
      }

      .cls-5, .cls-4 {
        fill: #f07b1f;
      }
    </style>
  </defs>
  <g>
    <path class="cls-2" d="M114.75,191.43c-8.83,4.21-16.28,7.67-16.52,7.67-.85,0,1.02-10.24,4.6-25.21,9.58-40.07,30.61-77.55,60.01-106.95,8.1-8.1,26.64-23.66,29.52-24.76,1.62-.64,55.97,24.81,102.92,48.17l28.81,14.34-12.6,1.51c-15.22,1.84-25.23,4.39-37.22,9.49-4.95,2.11-39.25,18.28-76.22,35.94-36.96,17.66-74.45,35.57-83.28,39.79ZM460.92,405.08c-5.28,3.99-10.14,7.54-10.8,7.9-.66.36-11.74-4.19-24.61-10.09-35.39-16.23-77.39-35.99-90.61-42.62l-11.8-5.93,11.9-1.36c6.61-.76,16.82-3,23-5.05,11.55-3.84,17.51-6.43,66.32-28.77,102.43-46.89,118.97-54.3,119.59-53.67.82.82-3.01,17.62-6.9,30.25-12.45,40.51-42.97,84.37-76.08,109.35ZM302.93,448.47l2.59,5.1-3.32-.12c-5.39-.18-23.43-3.19-31.69-5.27-40.63-10.24-79.59-32.29-107.54-60.83l-6.27-6.41,11.27-33c13-38.07,36.35-105.38,37.47-108.03.42-1,1.44,2.52,2.26,7.8.73,4.71,1.15,8.13,1.84,11.5,2.77,13.74,9.76,26.65,58.98,122.34,17.49,34.01,32.97,64.11,34.4,66.92ZM160.23,331.74c-6.76,19.81-12.62,36.36-13.04,36.78-1.87,1.86-20.06-25.46-28.4-42.67-13.96-28.83-20.75-56.91-21.82-90.16l-.68-21.63,46.07-21.79c25.35-11.99,56.64-26.89,69.55-33.12l23.47-11.32-6.47,9.67c-15.92,23.78-27.01,51.9-68.67,174.23ZM476.52,281.34c-35.65,16.3-65.48,29.91-66.29,30.24-.82.32,3.11-6.27,8.71-14.66,17.06-25.54,49.3-94.02,82.8-175.84.59-1.45,1.14-2.78,1.64-4.02,3.81-9.34,5.25-12.88,6.63-12.86,1.03.01,2.04,1.98,3.95,4.98,6.29,9.84,13.98,25.58,18.8,38.47,10.74,28.75,14.7,54.4,14.14,91.38-.14,9.75-.36,10.62-2.86,11.6-1.49.58-31.87,14.39-67.52,30.7ZM381.65,105.17c5.5,12.71,9.65,23.08,9.22,23.05-.42-.04-4.01-2.32-7.97-5.07-3.96-2.75-13.68-8.69-21.61-13.2-15.69-8.93-88.29-45.22-115.23-57.6-9.24-4.25-22.1-10.39-28.57-13.65l-11.76-5.93,8.16-4.56c18.7-10.46,45.26-19.96,66.98-23.98C295.09,1.58,316.85-.37,327.08.06l9,.38,17.78,40.81c9.78,22.45,22.28,51.21,27.79,63.92ZM355.89,451.63c-6.27.96-16.86,2.1-23.54,2.53l-12.14.78-30.81-60.26c-16.95-33.15-30.67-60.4-30.48-60.56.18-.16,6.54,3.44,14.14,7.99,22.19,13.32,72.69,38.39,125.44,62.25,9.9,4.48,22.45,10.3,27.88,12.94,5.1,2.48,8.02,3.66,8.1,5.02.08,1.51-3.36,3.23-11.25,7.17l-3.17,1.58c-19.1,9.58-43.37,17.36-64.18,20.55ZM448.16,92.93c-16.74,15.86-32.91,31.08-35.91,33.83l-5.46,4.99-11.86-27.25C366.44,39.08,351.13,3,351.65,2.48c.89-.89,20.98,3.07,32.6,6.43,30.02,8.68,64.65,28.2,88.51,49.87l5.85,5.32-30.45,28.82ZM462.97,180.5c-5.22,11.88-12.7,28.33-16.61,36.55l-7.12,14.94-1.37-11.94c-.76-6.57-2.77-16.71-4.49-22.53l-3.11-10.59,6.31-8.08,31.42-40.13c13.8-17.63,25.29-31.87,25.53-31.63.24.24-1.51,4.97-3.9,10.52-2.39,5.53-7.23,17.09-10.76,25.68-3.53,8.58-10.7,25.33-15.92,37.21Z"/>
    <path class="cls-1" d="M349.88,269.37c-12.21,15.75-23.83,30.42-25.81,32.58l-3.6,3.95-21.01-23.6c-11.55-12.98-29.04-32.52-38.84-43.42l-17.84-19.83,16.64-15.92c9.15-8.75,17.18-15.94,17.84-15.96.66-.01,10.6,10.25,22.07,22.83l20.87,22.85,15.74-15.41c17.31-16.96,83.82-80.44,101.06-96.45,5.99-5.57,30.56-28.86,54.62-51.75,24.04-22.9,45.32-42.89,47.31-44.41l3.58-2.78-3.58,4.78c-6.94,9.25-60.94,78.07-62.67,79.85-.96.98-.02-1.18,2.09-4.8,2.1-3.63,6.93-9.84,10.71-13.8,3.77-3.96,8.43-9.63,10.35-12.6,1.91-2.98,6.22-8.64,9.59-12.6,10.2-12,13.35-17.4,10.15-17.4-1.12,0-6.51,5.02-38.09,35.41-6.85,6.6-18.25,17.51-25.3,24.26-7.07,6.75-19.13,18.35-26.82,25.81-7.68,7.45-16.6,15.68-19.81,18.27-3.2,2.58-12.66,11.5-20.99,19.79-18.21,18.13-54.6,53.13-62.6,60.21l-5.74,5.08-6.27-7.07c-3.44-3.88-9.84-10.85-14.21-15.48-4.37-4.63-10.23-10.97-13.01-14.08-8.52-9.51-9.85-9.21-25.11,5.53-13.04,12.59-14.97,15.63-12.75,19.93.91,1.76,3.59,4.68,5.94,6.48,2.36,1.8,6.52,6.28,9.23,9.95s9.11,10.8,14.21,15.83,10.15,10.84,11.21,12.92c1.87,3.63,12.2,13.64,14.08,13.64.5,0,2.26,2.29,3.9,5.1,9.47,16.13,17.37,17.01,24.61,2.7,1.33-2.64,4.17-6.42,6.29-8.4,2.12-1.98,6.88-7.66,10.56-12.6,3.67-4.95,9.42-12.24,12.77-16.2,3.34-3.96,7.39-9.36,9-12,1.61-2.64,7.02-9.66,12.03-15.6,12.09-14.34,16.05-19.58,18.62-24.6,1.18-2.3,6.83-9.34,12.57-15.65,5.73-6.3,13.14-15.5,16.48-20.42,3.34-4.92,9.43-12.74,13.54-17.36,8.03-9.03,14.42-17.72,14.42-19.61,0-.64,3.84-5.14,8.53-9.99l8.53-8.81-6.89,9c-3.78,4.95-16.95,21.87-29.24,37.59-12.29,15.74-26.41,33.89-31.35,40.36-4.95,6.46-14.94,19.3-22.21,28.52-7.26,9.23-23.2,29.67-35.41,45.42Z"/>
    <path class="cls-5" d="M492.7,86c-8.1,10.37-16.94,21.68-25.77,32.99.46-.59.84-1.09,1.16-1.51l6.89-9-8.53,8.81c-4.69,4.85-8.53,9.35-8.53,9.99,0,1.9-6.39,10.59-14.42,19.61-4.11,4.62-10.2,12.44-13.54,17.36-3.34,4.92-10.76,14.12-16.48,20.42-5.74,6.31-11.39,13.35-12.57,15.65-2.57,5.02-6.53,10.25-18.62,24.6-5.01,5.94-10.42,12.96-12.03,15.6-1.61,2.64-5.67,8.04-9,12-3.35,3.96-9.1,11.26-12.77,16.2-3.69,4.95-8.44,10.62-10.56,12.6-2.12,1.98-4.96,5.76-6.29,8.4-7.24,14.31-15.14,13.43-24.61-2.7-1.64-2.81-3.4-5.1-3.9-5.1-1.88,0-12.21-10.01-14.08-13.64-1.06-2.08-6.11-7.89-11.21-12.92s-11.5-12.16-14.21-15.83-6.87-8.15-9.23-9.95c-2.35-1.8-5.03-4.72-5.94-6.48-2.22-4.3-.29-7.33,12.75-19.93,15.26-14.74,16.59-15.04,25.11-5.53,2.78,3.11,8.64,9.45,13.01,14.08,4.37,4.63,10.77,11.61,14.21,15.48l6.27,7.07,5.74-5.08c7.99-7.08,44.39-42.08,62.6-60.21,8.33-8.29,17.79-17.21,20.99-19.79,3.2-2.59,12.12-10.82,19.81-18.27,7.68-7.45,19.75-19.06,26.82-25.81,7.06-6.75,18.45-17.66,25.3-24.26,31.58-30.39,36.97-35.41,38.09-35.41,3.19,0,.05,5.4-10.15,17.4-3.37,3.96-7.68,9.63-9.59,12.6-1.92,2.98-6.58,8.64-10.35,12.6-3.78,3.96-8.61,10.18-10.71,13.8-2.11,3.63-3.05,5.79-2.09,4.8.6-.61,7.45-9.25,16.44-20.67ZM538.93,26.83l3.58-4.78-3.58,4.79c-.18.23-.44.58-.77,1.01.29-.4.55-.73.77-1.02Z"/>
  </g>
  <text class="cls-3" transform="translate(0 570.24)"><tspan x="0" y="0">Prime</tspan></text>
  <text class="cls-4" transform="translate(378.93 574.94)"><tspan x="0" y="0">Pick</tspan></text>
</svg>