<?xml version="1.0" encoding="UTF-8"?>
<svg id="_图层_1" xmlns="http://www.w3.org/2000/svg" version="1.1" viewBox="0 0 1037.7 1024">
  <!-- Generator: Adobe Illustrator 29.0.0, SVG Export Plug-In . SVG Version: 2.1.0 Build 186)  -->
  <defs>
    <style>
      .st0 {
        fill: #fff;
      }

      .st1, .st2, .st3 {
        isolation: isolate;
      }

      .st1, .st3 {
        font-family: MVBoli, 'MV Boli';
        font-size: 143.3px;
      }

      .st1, .st4 {
        fill: #f07b1f;
      }

      .st5 {
        fill: #dd8841;
      }

      .st6, .st3 {
        fill: #5d6063;
      }
    </style>
  </defs>
  <rect class="st0" x="84.2" y="85.8" width="886" height="836.5" rx="108.9" ry="108.9"/>
  <g>
    <path class="st6" d="M286.5-688.7c-10.2,4.9-18.9,8.9-19.1,8.9-1,0,1.2-11.9,5.3-29.2,11.1-46.4,35.5-89.9,69.6-124,9.4-9.4,30.9-27.4,34.2-28.7,1.9-.7,64.9,28.8,119.3,55.8l33.4,16.6-14.6,1.8c-17.6,2.1-29.2,5.1-43.1,11-5.7,2.4-45.5,21.2-88.3,41.7-42.8,20.5-86.3,41.2-96.5,46.1h0ZM687.7-441c-6.1,4.6-11.8,8.7-12.5,9.2-.8.4-13.6-4.9-28.5-11.7-41-18.8-89.7-41.7-105-49.4l-13.7-6.9,13.8-1.6c7.7-.9,19.5-3.5,26.7-5.9,13.4-4.5,20.3-7.5,76.9-33.3,118.7-54.4,137.9-62.9,138.6-62.2,1,1-3.5,20.4-8,35.1-14.4,47-49.8,97.8-88.2,126.7h0ZM504.6-390.7l3,5.9h-3.8c-6.2-.3-27.2-3.8-36.7-6.2-47.1-11.9-92.3-37.4-124.7-70.5l-7.3-7.4,13.1-38.3c15.1-44.1,42.1-122.1,43.4-125.2.5-1.2,1.7,2.9,2.6,9,.8,5.5,1.3,9.4,2.1,13.3,3.2,15.9,11.3,30.9,68.4,141.8,20.3,39.4,38.2,74.3,39.9,77.6h0ZM339.2-526c-7.8,23-14.6,42.1-15.1,42.6-2.2,2.2-23.3-29.5-32.9-49.5-16.2-33.4-24.1-66-25.3-104.5l-.8-25.1,53.4-25.3c29.4-13.9,65.7-31.2,80.6-38.4l27.2-13.1-7.5,11.2c-18.5,27.6-31.3,60.2-79.6,202h0ZM705.8-584.4c-41.3,18.9-75.9,34.7-76.8,35.1-1,.4,3.6-7.3,10.1-17,19.8-29.6,57.1-109,96-203.8.7-1.7,1.3-3.2,1.9-4.7,4.4-10.8,6.1-14.9,7.7-14.9,1.2,0,2.4,2.3,4.6,5.8,7.3,11.4,16.2,29.7,21.8,44.6,12.4,33.3,17,63.1,16.4,105.9-.2,11.3-.4,12.3-3.3,13.4-1.7.7-36.9,16.7-78.3,35.6h0ZM595.9-788.6c6.4,14.7,11.2,26.8,10.7,26.7-.5,0-4.6-2.7-9.2-5.9s-15.9-10.1-25-15.3c-18.2-10.4-102.3-52.4-133.6-66.8-10.7-4.9-25.6-12-33.1-15.8l-13.6-6.9,9.5-5.3c21.7-12.1,52.5-23.1,77.6-27.8,16.5-3.1,41.7-5.3,53.6-4.8l10.4.4,20.6,47.3c11.3,26,25.8,59.4,32.2,74.1ZM566-387.1c-7.3,1.1-19.5,2.4-27.3,2.9l-14.1.9-35.7-69.8c-19.6-38.4-35.6-70-35.3-70.2.2-.2,7.6,4,16.4,9.3,25.7,15.4,84.3,44.5,145.4,72.2,11.5,5.2,26,11.9,32.3,15,5.9,2.9,9.3,4.2,9.4,5.8,0,1.8-3.9,3.7-13,8.3l-3.7,1.8c-22.1,11.1-50.3,20.1-74.4,23.8h0ZM672.9-802.8c-19.4,18.4-38.1,36-41.6,39.2l-6.3,5.8-13.7-31.6c-33-75.8-50.8-117.7-50.2-118.3,1-1,24.3,3.6,37.8,7.5,34.8,10.1,74.9,32.7,102.6,57.8l6.8,6.2-35.3,33.4h0ZM690.1-701.3c-6.1,13.8-14.7,32.8-19.3,42.4l-8.3,17.3-1.6-13.8c-.9-7.6-3.2-19.4-5.2-26.1l-3.6-12.3,7.3-9.4,36.4-46.5c16-20.4,29.3-36.9,29.6-36.7.3.3-1.8,5.8-4.5,12.2-2.8,6.4-8.4,19.8-12.5,29.8-4.1,9.9-12.4,29.4-18.5,43.1h0Z"/>
    <path class="st5" d="M559-598.3c-14.2,18.3-27.6,35.3-29.9,37.8l-4.2,4.6-24.4-27.4c-13.4-15-33.7-37.7-45-50.3l-20.7-23,19.3-18.5c10.6-10.1,19.9-18.5,20.7-18.5.8,0,12.3,11.9,25.6,26.5l24.2,26.5,18.2-17.9c20.1-19.7,97.2-93.2,117.1-111.8,6.9-6.5,35.4-33.5,63.3-60,27.9-26.5,52.5-49.7,54.8-51.5l4.1-3.2-4.1,5.5c-8,10.7-70.6,90.5-72.6,92.6-1.1,1.1,0-1.4,2.4-5.6,2.4-4.2,8-11.4,12.4-16,4.4-4.6,9.8-11.2,12-14.6,2.2-3.5,7.2-10,11.1-14.6,11.8-13.9,15.5-20.2,11.8-20.2s-7.5,5.8-44.2,41c-7.9,7.7-21.2,20.3-29.3,28.1-8.2,7.8-22.2,21.3-31.1,29.9-8.9,8.6-19.2,18.2-23,21.2-3.7,3-14.7,13.3-24.3,22.9-21.1,21-63.3,61.6-72.6,69.8l-6.7,5.9-7.3-8.2c-4-4.5-11.4-12.6-16.5-17.9-5.1-5.4-11.9-12.7-15.1-16.3-9.9-11-11.4-10.7-29.1,6.4-15.1,14.6-17.4,18.1-14.8,23.1,1.1,2,4.2,5.4,6.9,7.5,2.7,2.1,7.6,7.3,10.7,11.5s10.6,12.5,16.5,18.3c5.9,5.8,11.8,12.6,13,15,2.2,4.2,14.1,15.8,16.3,15.8s2.6,2.7,4.5,5.9c11,18.7,20.1,19.7,28.5,3.1,1.5-3.1,4.8-7.4,7.3-9.7,2.5-2.3,8-8.9,12.2-14.6,4.3-5.7,10.9-14.2,14.8-18.8,3.9-4.6,8.6-10.8,10.4-13.9s8.1-11.2,13.9-18.1c14-16.6,18.6-22.7,21.6-28.5,1.4-2.7,7.9-10.8,14.6-18.1,6.6-7.3,15.2-18,19.1-23.7,3.9-5.7,10.9-14.8,15.7-20.1,9.3-10.5,16.7-20.5,16.7-22.7s4.5-6,9.9-11.6l9.9-10.2-8,10.4c-4.4,5.7-19.6,25.3-33.9,43.6-14.2,18.2-30.6,39.3-36.3,46.8-5.7,7.5-17.3,22.4-25.7,33.1-8.4,10.7-26.9,34.4-41,52.6h0Z"/>
    <path class="st4" d="M724.6-810.9c-9.4,12-19.6,25.1-29.9,38.2.5-.7,1-1.3,1.3-1.8l8-10.4-9.9,10.2c-5.4,5.6-9.9,10.8-9.9,11.6,0,2.2-7.4,12.3-16.7,22.7-4.8,5.4-11.8,14.4-15.7,20.1s-12.5,16.4-19.1,23.7c-6.7,7.3-13.2,15.5-14.6,18.1-3,5.8-7.6,11.9-21.6,28.5-5.8,6.9-12.1,15-13.9,18.1s-6.6,9.3-10.4,13.9c-3.9,4.6-10.5,13.1-14.8,18.8-4.3,5.7-9.8,12.3-12.2,14.6s-5.7,6.7-7.3,9.7c-8.4,16.6-17.5,15.6-28.5-3.1-1.9-3.3-3.9-5.9-4.5-5.9-2.2,0-14.2-11.6-16.3-15.8-1.2-2.4-7.1-9.1-13-15-5.9-5.8-13.3-14.1-16.5-18.3s-8-9.4-10.7-11.5c-2.7-2.1-5.8-5.5-6.9-7.5-2.6-5-.3-8.5,14.8-23.1,17.7-17.1,19.2-17.4,29.1-6.4,3.2,3.6,10,11,15.1,16.3s12.5,13.5,16.5,17.9l7.3,8.2,6.7-5.9c9.3-8.2,51.5-48.8,72.6-69.8,9.7-9.6,20.6-19.9,24.3-22.9,3.7-3,14-12.5,23-21.2,8.9-8.6,22.9-22.1,31.1-29.9,8.2-7.8,21.4-20.5,29.3-28.1,36.6-35.2,42.9-41,44.2-41,3.7,0,0,6.3-11.8,20.2-3.9,4.6-8.9,11.2-11.1,14.6-2.2,3.5-7.6,10-12,14.6-4.4,4.6-10,11.8-12.4,16-2.4,4.2-3.5,6.7-2.4,5.6.7-.7,8.6-10.7,19.1-24h0ZM778.2-879.4l4.1-5.5-4.1,5.6c-.2.3-.5.7-.9,1.2.3-.5.6-.8.9-1.2Z"/>
  </g>
  <g class="st2">
    <text class="st3" transform="translate(153.5 -249.6)"><tspan x="0" y="0">Prime</tspan></text>
  </g>
  <g class="st2">
    <text class="st1" transform="translate(592.7 -244.1)"><tspan x="0" y="0">Pick</tspan></text>
  </g>
  <g>
    <path class="st6" d="M234.3,451.5c-12.3,5.9-22.7,10.7-23,10.7-1.2,0,1.4-14.3,6.4-35.2,13.4-55.9,42.7-108.2,83.7-149.2,11.3-11.3,37.2-33,41.2-34.5,2.3-.9,78.1,34.6,143.6,67.2l40.2,20-17.6,2.1c-21.2,2.6-35.2,6.1-51.9,13.2-6.9,2.9-54.7,25.5-106.3,50.1-51.6,24.6-103.8,49.6-116.2,55.5h0ZM717.1,749.6c-7.4,5.6-14.1,10.5-15.1,11-.9.5-16.4-5.8-34.3-14.1-49.4-22.6-107.9-50.2-126.4-59.4l-16.5-8.3,16.6-1.9c9.2-1.1,23.5-4.2,32.1-7,16.1-5.4,24.4-9,92.5-40.1,142.9-65.4,165.9-75.7,166.8-74.9,1.1,1.1-4.2,24.6-9.6,42.2-17.4,56.5-59.9,117.7-106.1,152.5h0ZM496.8,810.1l3.6,7.1-4.6-.2c-7.5-.3-32.7-4.4-44.2-7.4-56.7-14.3-111-45-150-84.8l-8.7-8.9,15.7-46c18.1-53.1,50.7-147,52.3-150.7.6-1.4,2,3.5,3.2,10.9,1,6.6,1.6,11.3,2.6,16,3.9,19.2,13.6,37.2,82.3,170.6,24.4,47.4,46,89.4,48,93.3h0ZM297.7,647.3c-9.4,27.6-17.6,50.7-18.2,51.3-2.6,2.6-28-35.5-39.6-59.5-19.5-40.2-28.9-79.4-30.4-125.8l-.9-30.2,64.3-30.4c35.4-16.7,79-37.5,97-46.2l32.7-15.8-9,13.5c-22.2,33.2-37.7,72.4-95.8,243h0ZM738.9,577c-49.7,22.7-91.3,41.7-92.5,42.2-1.1.4,4.3-8.7,12.1-20.4,23.8-35.6,68.8-131.1,115.5-245.3.8-2,1.6-3.9,2.3-5.6,5.3-13,7.3-18,9.2-17.9,1.4,0,2.8,2.8,5.5,6.9,8.8,13.7,19.5,35.7,26.2,53.7,15,40.1,20.5,75.9,19.7,127.5-.2,13.6-.5,14.8-4,16.2-2.1.8-44.5,20.1-94.2,42.8h0ZM606.6,331.2c7.7,17.7,13.5,32.2,12.9,32.2-.6,0-5.6-3.2-11.1-7.1s-19.1-12.1-30.1-18.4c-21.9-12.5-123.2-63.1-160.7-80.3-12.9-5.9-30.8-14.5-39.9-19l-16.4-8.3,11.4-6.4c26.1-14.6,63.1-27.8,93.4-33.4,19.8-3.7,50.2-6.4,64.5-5.8l12.6.5,24.8,56.9c13.6,31.3,31.1,71.4,38.8,89.2ZM570.6,814.5c-8.7,1.3-23.5,2.9-32.8,3.5l-16.9,1.1-43-84.1c-23.6-46.2-42.8-84.2-42.5-84.5.3-.2,9.1,4.8,19.7,11.1,31,18.6,101.4,53.5,175,86.8,13.8,6.2,31.3,14.4,38.9,18,7.1,3.5,11.2,5.1,11.3,7,.1,2.1-4.7,4.5-15.7,10l-4.4,2.2c-26.6,13.4-60.5,24.2-89.5,28.7h0ZM699.3,314.1c-23.3,22.1-45.9,43.4-50.1,47.2l-7.6,7-16.5-38c-39.7-91.3-61.1-141.6-60.4-142.3,1.2-1.2,29.3,4.3,45.5,9,41.9,12.1,90.2,39.3,123.5,69.6l8.2,7.4-42.5,40.2h0ZM720,436.3c-7.3,16.6-17.7,39.5-23.2,51l-9.9,20.8-1.9-16.7c-1.1-9.2-3.9-23.3-6.3-31.4l-4.3-14.8,8.8-11.3,43.8-56c19.2-24.6,35.3-44.5,35.6-44.1.3.3-2.1,6.9-5.4,14.7-3.3,7.7-10.1,23.8-15,35.8-4.9,12-14.9,35.3-22.2,51.9h0Z"/>
    <path class="st5" d="M562.3,560.3c-17,22-33.2,42.4-36,45.4l-5,5.5-29.3-32.9c-16.1-18.1-40.5-45.4-54.2-60.6l-24.9-27.7,23.2-22.2c12.8-12.2,24-22.2,24.9-22.3.9,0,14.8,14.3,30.8,31.8l29.1,31.9,22-21.5c24.1-23.7,116.9-112.2,141-134.5,8.4-7.8,42.6-40.3,76.2-72.2,33.5-31.9,63.2-59.8,66-61.9l5-3.9-5,6.7c-9.7,12.9-85,108.9-87.4,111.4-1.3,1.4,0-1.6,2.9-6.7,2.9-5.1,9.7-13.7,14.9-19.2,5.3-5.5,11.8-13.4,14.4-17.6,2.7-4.2,8.7-12.1,13.4-17.6,14.2-16.7,18.6-24.3,14.2-24.3s-9.1,7-53.1,49.4c-9.6,9.2-25.5,24.4-35.3,33.8-9.9,9.4-26.7,25.6-37.4,36-10.7,10.4-23.2,21.9-27.6,25.5-4.5,3.6-17.7,16-29.3,27.6-25.4,25.3-76.2,74.1-87.3,84l-8,7.1-8.7-9.9c-4.8-5.4-13.7-15.1-19.8-21.6-6.1-6.5-14.3-15.3-18.1-19.6-11.9-13.3-13.7-12.8-35,7.7-18.2,17.6-20.9,21.8-17.8,27.8,1.3,2.5,5,6.5,8.3,9,3.3,2.5,9.1,8.8,12.9,13.9,3.8,5.1,12.7,15.1,19.8,22.1,7.1,7,14.2,15.1,15.6,18,2.6,5.1,17,19,19.6,19s3.2,3.2,5.4,7.1c13.2,22.5,24.2,23.7,34.3,3.8,1.9-3.7,5.8-9,8.8-11.7,3-2.8,9.6-10.7,14.7-17.6,5.1-6.9,13.1-17.1,17.8-22.6,4.7-5.5,10.3-13.1,12.6-16.7s9.8-13.5,16.8-21.8c16.9-20,22.4-27.3,26-34.3,1.6-3.2,9.5-13,17.5-21.8,8-8.8,18.3-21.6,23-28.5,4.7-6.9,13.2-17.8,18.9-24.2,11.2-12.6,20.1-24.7,20.1-27.4s5.4-7.2,11.9-13.9l11.9-12.3-9.6,12.6c-5.3,6.9-23.6,30.5-40.8,52.4-17.1,22-36.8,47.3-43.7,56.3-6.9,9-20.8,26.9-31,39.8-10.1,12.9-32.4,41.4-49.4,63.4h0Z"/>
    <path class="st4" d="M761.5,304.5c-11.3,14.5-23.6,30.2-35.9,46,.6-.8,1.2-1.5,1.6-2.1l9.6-12.6-11.9,12.3c-6.5,6.8-11.9,13-11.9,13.9,0,2.7-8.9,14.8-20.1,27.4-5.7,6.4-14.2,17.4-18.9,24.2-4.7,6.9-15,19.7-23,28.5-8,8.8-15.9,18.6-17.5,21.8-3.6,7-9.1,14.3-26,34.3-7,8.3-14.5,18.1-16.8,21.8s-7.9,11.2-12.6,16.7c-4.7,5.5-12.7,15.7-17.8,22.6-5.1,6.9-11.8,14.8-14.7,17.6-3,2.8-6.9,8-8.8,11.7-10.1,20-21.1,18.7-34.3-3.8-2.3-3.9-4.7-7.1-5.4-7.1-2.6,0-17-14-19.6-19-1.5-2.9-8.5-11-15.6-18-7.1-7-16-17-19.8-22.1s-9.6-11.4-12.9-13.9c-3.3-2.5-7-6.6-8.3-9-3.1-6-.4-10.2,17.8-27.8,21.3-20.6,23.1-21,35-7.7,3.9,4.3,12.1,13.2,18.1,19.6,6.1,6.5,15,16.2,19.8,21.6l8.7,9.9,8-7.1c11.1-9.9,61.9-58.7,87.3-84,11.6-11.6,24.8-24,29.3-27.6,4.5-3.6,16.9-15.1,27.6-25.5,10.7-10.4,27.5-26.6,37.4-36,9.8-9.4,25.7-24.6,35.3-33.8,44-42.4,51.6-49.4,53.1-49.4,4.4,0,0,7.5-14.2,24.3-4.7,5.5-10.7,13.4-13.4,17.6-2.7,4.2-9.2,12.1-14.4,17.6-5.3,5.5-12,14.2-14.9,19.2-2.9,5.1-4.3,8.1-2.9,6.7.8-.9,10.4-12.9,22.9-28.8h0ZM825.9,221.9l5-6.7-5,6.7c-.3.3-.6.8-1.1,1.4.4-.6.8-1,1.1-1.4Z"/>
  </g>
</svg>