<?xml version="1.0" encoding="UTF-8"?>
<svg id="_图层_1" data-name=" 图层 1" xmlns="http://www.w3.org/2000/svg" viewBox="0 0 1037.74 1024">
  <defs>
    <style>
      .cls-1 {
        fill: #fff;
      }

      .cls-2 {
        fill: #dd8841;
      }

      .cls-3 {
        fill: #5d6063;
      }

      .cls-4 {
        fill: #f07b1f;
      }
    </style>
  </defs>
  <rect class="cls-1" x="84.23" y="85.8" width="885.97" height="836.54" rx="108.92" ry="108.92"/>
  <g>
    <path class="cls-3" d="M234.28,451.54c-12.32,5.87-22.71,10.7-23.04,10.7-1.19,0,1.42-14.28,6.42-35.16,13.36-55.89,42.7-108.17,83.71-149.18,11.3-11.3,37.16-33,41.18-34.54,2.26-.89,78.07,34.61,143.56,67.19l40.19,20-17.58,2.11c-21.23,2.57-35.19,6.12-51.92,13.24-6.9,2.94-54.75,25.5-106.32,50.13-51.55,24.63-103.85,49.62-116.16,55.5h-.03ZM717.14,749.55c-7.36,5.57-14.14,10.52-15.06,11.02-.92.5-16.38-5.84-34.33-14.07-49.36-22.64-107.95-50.2-126.39-59.45l-16.46-8.27,16.6-1.9c9.22-1.06,23.46-4.18,32.08-7.04,16.11-5.36,24.42-8.97,92.51-40.13,142.88-65.4,165.95-75.74,166.81-74.86,1.14,1.14-4.2,24.58-9.62,42.19-17.37,56.51-59.94,117.68-106.12,152.53h-.01ZM496.76,810.07l3.61,7.11-4.63-.17c-7.52-.25-32.68-4.45-44.2-7.35-56.67-14.28-111.02-45.04-150-84.85l-8.75-8.94,15.72-46.03c18.13-53.1,50.7-146.99,52.27-150.69.59-1.39,2.01,3.52,3.15,10.88,1.02,6.57,1.6,11.34,2.57,16.04,3.86,19.17,13.61,37.17,82.27,170.65,24.4,47.44,45.99,89.42,47.98,93.34h.01ZM297.72,647.25c-9.43,27.63-17.6,50.72-18.19,51.3-2.61,2.59-27.98-35.51-39.61-59.52-19.47-40.21-28.94-79.38-30.44-125.76l-.95-30.17,64.26-30.39c35.36-16.72,79-37.51,97.01-46.2l32.74-15.79-9.02,13.49c-22.21,33.17-37.68,72.39-95.78,243.03h-.01ZM738.89,576.95c-49.73,22.74-91.34,41.72-92.47,42.18-1.14.45,4.34-8.75,12.15-20.45,23.8-35.62,68.77-131.14,115.49-245.27.82-2.02,1.59-3.88,2.29-5.61,5.31-13.03,7.32-17.97,9.25-17.94,1.44.01,2.85,2.76,5.51,6.95,8.77,13.73,19.5,35.68,26.22,53.66,14.98,40.1,20.5,75.88,19.72,127.46-.2,13.6-.5,14.81-3.99,16.18-2.08.81-44.45,20.07-94.18,42.82h0ZM606.56,331.22c7.67,17.73,13.46,32.19,12.86,32.15-.59-.06-5.59-3.24-11.12-7.07s-19.08-12.12-30.14-18.41c-21.89-12.46-123.15-63.08-160.73-80.34-12.89-5.93-30.83-14.49-39.85-19.04l-16.4-8.27,11.38-6.36c26.08-14.59,63.13-27.84,93.43-33.45,19.83-3.7,50.19-6.42,64.46-5.82l12.55.53,24.8,56.92c13.64,31.31,31.08,71.43,38.76,89.16ZM570.63,814.48c-8.75,1.34-23.52,2.93-32.83,3.53l-16.93,1.09-42.98-84.05c-23.64-46.24-42.78-84.25-42.52-84.47.25-.22,9.12,4.8,19.72,11.14,30.95,18.58,101.39,53.55,174.97,86.83,13.81,6.25,31.31,14.37,38.89,18.05,7.11,3.46,11.19,5.11,11.3,7,.11,2.11-4.69,4.51-15.69,10l-4.42,2.2c-26.64,13.36-60.5,24.21-89.52,28.66h.01ZM699.34,314.15c-23.35,22.12-45.9,43.35-50.09,47.19l-7.62,6.96-16.54-38.01c-39.74-91.25-61.09-141.58-60.37-142.3,1.24-1.24,29.26,4.28,45.47,8.97,41.87,12.11,90.18,39.34,123.46,69.56l8.16,7.42-42.47,40.2h0ZM719.99,436.29c-7.28,16.57-17.71,39.52-23.17,50.98l-9.93,20.84-1.91-16.65c-1.06-9.16-3.86-23.31-6.26-31.43l-4.34-14.77,8.8-11.27,43.83-55.98c19.25-24.59,35.28-44.45,35.61-44.12.33.33-2.11,6.93-5.44,14.67-3.33,7.71-10.08,23.84-15.01,35.82-4.92,11.97-14.93,35.33-22.21,51.9h.03Z"/>
    <path class="cls-2" d="M562.25,560.26c-17.03,21.97-33.24,42.43-36,45.44l-5.02,5.51-29.31-32.92c-16.11-18.11-40.51-45.36-54.18-60.56l-24.88-27.66,23.21-22.21c12.76-12.21,23.96-22.23,24.88-22.26.92-.01,14.79,14.3,30.78,31.84l29.11,31.87,21.96-21.49c24.14-23.66,116.92-112.2,140.96-134.53,8.36-7.77,42.63-40.26,76.19-72.18,33.53-31.94,63.21-59.83,65.99-61.95l4.99-3.88-4.99,6.67c-9.68,12.9-85,108.9-87.42,111.38-1.34,1.37-.03-1.65,2.92-6.7,2.93-5.06,9.67-13.73,14.94-19.25,5.26-5.52,11.76-13.43,14.44-17.58,2.66-4.16,8.68-12.05,13.38-17.58,14.23-16.74,18.62-24.27,14.16-24.27-1.56,0-9.08,7-53.13,49.39-9.55,9.21-25.46,24.42-35.29,33.84-9.86,9.42-26.68,25.6-37.41,36-10.71,10.39-23.15,21.87-27.63,25.48-4.46,3.6-17.66,16.04-29.28,27.6-25.4,25.29-76.16,74.11-87.32,83.98l-8.01,7.09-8.75-9.86c-4.8-5.41-13.73-15.13-19.82-21.59-6.1-6.46-14.27-15.3-18.15-19.64-11.88-13.27-13.74-12.85-35.02,7.71-18.19,17.56-20.88,21.8-17.78,27.8,1.27,2.45,5.01,6.53,8.29,9.04,3.29,2.51,9.09,8.76,12.87,13.88,3.78,5.12,12.71,15.06,19.82,22.08,7.11,7.02,14.16,15.12,15.64,18.02,2.61,5.06,17.02,19.03,19.64,19.03.7,0,3.15,3.19,5.44,7.11,13.21,22.5,24.23,23.73,34.33,3.77,1.86-3.68,5.82-8.96,8.77-11.72,2.96-2.76,9.6-10.68,14.73-17.58,5.12-6.9,13.14-17.07,17.81-22.6,4.66-5.52,10.31-13.06,12.55-16.74s9.79-13.47,16.78-21.76c16.86-20,22.39-27.31,25.97-34.31,1.65-3.21,9.53-13.03,17.53-21.83,7.99-8.79,18.33-21.62,22.99-28.48,4.66-6.86,13.15-17.77,18.89-24.21,11.2-12.6,20.11-24.72,20.11-27.35,0-.89,5.36-7.17,11.9-13.93l11.9-12.29-9.61,12.55c-5.27,6.9-23.64,30.51-40.79,52.43-17.14,21.96-36.84,47.27-43.73,56.3-6.9,9.01-20.84,26.92-30.98,39.78-10.13,12.87-32.36,41.39-49.39,63.35v-.06Z"/>
    <path class="cls-4" d="M761.46,304.48c-11.3,14.46-23.63,30.24-35.95,46.02.64-.82,1.17-1.52,1.62-2.11l9.61-12.55-11.9,12.29c-6.54,6.77-11.9,13.04-11.9,13.93,0,2.65-8.91,14.77-20.11,27.35-5.73,6.44-14.23,17.35-18.89,24.21-4.66,6.86-15.01,19.7-22.99,28.48-8.01,8.8-15.89,18.62-17.53,21.83-3.58,7-9.11,14.3-25.97,34.31-6.99,8.29-14.53,18.08-16.78,21.76s-7.91,11.21-12.55,16.74c-4.67,5.52-12.69,15.71-17.81,22.6-5.15,6.9-11.77,14.81-14.73,17.58-2.96,2.76-6.92,8.03-8.77,11.72-10.1,19.96-21.12,18.73-34.33-3.77-2.29-3.92-4.74-7.11-5.44-7.11-2.62,0-17.03-13.96-19.64-19.03-1.48-2.9-8.52-11.01-15.64-18.02-7.11-7.02-16.04-16.96-19.82-22.08s-9.58-11.37-12.87-13.88c-3.28-2.51-7.02-6.58-8.29-9.04-3.1-6-.4-10.22,17.78-27.8,21.29-20.56,23.14-20.98,35.02-7.71,3.88,4.34,12.05,13.18,18.15,19.64,6.1,6.46,15.02,16.19,19.82,21.59l8.75,9.86,8.01-7.09c11.14-9.88,61.92-58.7,87.32-83.98,11.62-11.56,24.81-24.01,29.28-27.6,4.46-3.61,16.91-15.09,27.63-25.48,10.71-10.39,27.55-26.59,37.41-36,9.85-9.42,25.74-24.63,35.29-33.84,44.05-42.39,51.57-49.39,53.13-49.39,4.45,0,.07,7.53-14.16,24.27-4.7,5.52-10.71,13.43-13.38,17.58-2.68,4.16-9.18,12.05-14.44,17.58-5.27,5.52-12.01,14.2-14.94,19.25-2.94,5.06-4.25,8.08-2.92,6.7.84-.85,10.39-12.9,22.93-28.83v.04ZM825.95,221.95l4.99-6.67-4.99,6.68c-.25.32-.61.81-1.07,1.41.4-.56.77-1.02,1.07-1.42Z"/>
  </g>
</svg>